<svg xmlns="http://www.w3.org/2000/svg" viewBox="0 0 437.4 512">
  <path d="M45.4,326a255.4,255.4,0,0,0,13.4,82.7c.9,2.8,2,5.5,2.6,8.3,1.6,7.9-.9,14.1-9.1,16.4s-13.1-1.3-15.8-8.6a269.1,269.1,0,0,1-14.3-56.5c-5.1-36.7-5.2-73.2,6.4-109C73.5,121.4,254.7,77.8,357.8,179.9c39.6,39.3,59.8,86.7,61.5,142.2,1.3,40.5-31.4,75.8-71.7,77.6-41.8,1.9-77.4-29-79.4-70.3-1.1-24.4-10-43.1-33.6-51.7-33.3-12.1-66.4,13.6-65.7,50.2A166.7,166.7,0,0,0,285,484l7.3,2.3c7.9,2.6,11.4,8,9.5,16.2s-8.6,11.2-17.4,8.7c-25.4-7.1-49.1-17.9-69.5-35.1-46.5-38.9-71.1-88.6-72.1-149.3-.6-43.6,31.7-77.2,73.9-78.2s75.1,30.9,77.4,74.8c1.1,23.4,13.4,40.9,33.6,47.6,32,10.7,64.5-12.8,65-47.3,1.1-81.2-58.7-153.8-140.6-170.6C160.7,134.3,68.9,193.9,49,285A181.9,181.9,0,0,0,45.4,326ZM149,496.9c9.5,10.3,16.5,12.4,23.4,6.6s5.9-13.8-4-24.5C128,435.2,106,384.2,106.6,323.9c.6-49.1,32-92.1,78.7-106.5A111.9,111.9,0,0,1,330.2,320.8c.4,11,4.7,16.3,13.1,16.3s13.3-5.7,13.2-17.2a63.4,63.4,0,0,0-.4-7.6c-8.4-78.8-73.8-132.4-152.8-125.3-70.3,6.3-127,71.7-123,142.1C80.9,396.2,106.5,450.8,149,496.9ZM430.9,170.4C353.2,61.5,200.9,29.6,85.7,97.9A259.7,259.7,0,0,0,3.5,175.6c-5.4,7.7-4.4,15.8,1.9,20.3s13.9,2.6,19.7-5.3c1-1.3,1.8-2.6,2.7-3.9,86.5-123.8,272.4-132,369.5-16.4,5.8,6.9,10.9,14.2,16.3,21.3,4,5.2,9.4,6.9,15.3,4.9s8.6-6.4,8.5-12.6S433.8,174.5,430.9,170.4ZM125.7,15A272.6,272.6,0,0,0,73.4,38.5C65.5,43.2,63.2,50,66.9,56.9s10.6,8.8,18.8,4.8c3.5-1.7,6.8-3.7,10.2-5.4,51.2-26.6,105.5-34.7,162.5-27.1,32.3,4.3,62.2,15.9,90.9,31.1,4.8,2.6,9.6,5.3,15.3,2.5s7.3-6,7.6-11.3c.5-7.2-3.9-10.9-9.5-14C317.8,13.3,270.1-.3,218.8,0,187,.3,155.9,4.8,125.7,15ZM366.3,457c9-1.5,14-7.5,13.1-14.9s-7.6-12.2-17-11.2c-1.9.2-3.8.7-5.7.9-45.2,5.8-81.8-8.4-107.3-47.2a104,104,0,0,1-17.5-54.8c-.1-1.6-.2-3.2-.4-4.8-1-9.3-5.8-14-13.8-13.7s-12.5,5.6-12.4,15.1c.3,63.6,50.3,134,134.6,133C348,459.7,357.2,458.5,366.3,457Z"/>
</svg>